# xmcd
#
# Track frame offsets:
# 150
# 19025
# 32976
# 42933
# 53207
# 55218
# 67050
# 78383
#
# Disc length: 1190 seconds
#
# Revision: 0
# Processed by: cddbd v1.5.2PL0 Copyright (c) Steve Scherf et al.
# Submitted via: Audion 3.0.2 (http://www.panic.com/audion/)
#
DISCID=6904a408
DTITLE=Michael Boyle - Just Dad
DYEAR=1900
DGENRE=
TTITLE0=1 Blues
TTITLE1=2 Misty
TTITLE2=3 More Blues
TTITLE3=4 She wore 'em
TTITLE4=5 Playin 'around
TTITLE5=6 Mozart?
TTITLE6=7 Clare de la Lune
TTITLE7=8 Beethoven?
EXTD=
EXTT0=
EXTT1=
EXTT2=
EXTT3=
EXTT4=
EXTT5=
EXTT6=
EXTT7=
PLAYORDER=
